<?xml version="1.0" standalone="no"?>
<!-- Creator: fig2dev Version 3.2.7a -->
<!-- CreationDate: 2020-12-03 00:10:41 -->
<!-- Magnification: 1 -->
<svg	xmlns="http://www.w3.org/2000/svg"
	xmlns:xlink="http://www.w3.org/1999/xlink"
	width="393pt" height="438pt"
	viewBox="2688 1413 6549 7299">
<g fill="none">
<!-- Line -->
<rect x="2925" y="4650" width="1575" height="1650" rx="105"
	stroke="#000000" stroke-width="8px" stroke-dasharray="10 30"/>
<!-- Line -->
<rect x="5550" y="4650" width="1575" height="3750" rx="105"
	stroke="#000000" stroke-width="8px" stroke-dasharray="10 30"/>
<!-- Line -->
<rect x="2700" y="2025" width="4650" height="6675" rx="105"
	stroke="#000000" stroke-width="8px" stroke-dasharray="10 30"/>
<!-- Text -->
<text xml:space="preserve" x="6300" y="6450" fill="#000000" font-family="Times" font-style="normal" font-weight="normal" font-size="144" text-anchor="start">dvips</text>
<!-- Text -->
<text xml:space="preserve" x="6300" y="7500" fill="#000000" font-family="Times" font-style="normal" font-weight="normal" font-size="144" text-anchor="start">ps2pdf</text>
<!-- Text -->
<text xml:space="preserve" x="5175" y="4350" fill="#000000" font-family="Times" font-style="italic" font-weight="normal" font-size="144" text-anchor="start">texclean</text>
<!-- Line -->
<rect x="4650" y="3525" width="750" height="525"
	stroke="#000000" stroke-width="8px"/>
<!-- Line -->
<rect x="4650" y="4575" width="750" height="525"
	stroke="#000000" stroke-width="8px"/>
<!-- Line -->
<rect x="5775" y="5625" width="750" height="525" fill="#ffffff"
	stroke="#000000" stroke-width="8px"/>
<!-- Line -->
<rect x="5775" y="6675" width="750" height="525"
	stroke="#000000" stroke-width="8px"/>
<!-- Line -->
<rect x="5775" y="7725" width="750" height="525"
	stroke="#000000" stroke-width="8px"/>
<!-- Line -->
<defs>
<clipPath id="cp0">
	<path clip-rule="evenodd" d="M 2688,1413 H 9237 V 8712 H 2688 z
		M 6180,6539 6120,6539 6143,6682 6157,6682z"/>
</clipPath>
</defs>
<polyline points=" 6150,6150 6150,6675" clip-path="url(#cp0)"
	stroke="#000000" stroke-width="8px"/>
<!-- Forward arrow to point 6150,6675 -->
<polygon points=" 6120,6539 6150,6659 6180,6539 6120,6539"
	stroke="#000000" stroke-width="8px" stroke-miterlimit="8" fill="#000000"/>
<!-- Line -->
<defs>
<clipPath id="cp1">
	<path clip-rule="evenodd" d="M 2688,1413 H 9237 V 8712 H 2688 z
		M 6180,7589 6120,7589 6143,7732 6157,7732z"/>
</clipPath>
</defs>
<polyline points=" 6150,7200 6150,7725" clip-path="url(#cp1)"
	stroke="#000000" stroke-width="8px"/>
<!-- Forward arrow to point 6150,7725 -->
<polygon points=" 6120,7589 6150,7709 6180,7589 6120,7589"
	stroke="#000000" stroke-width="8px" stroke-miterlimit="8" fill="#000000"/>
<!-- Line -->
<rect x="3525" y="5625" width="750" height="525" fill="#ffffff"
	stroke="#000000" stroke-width="8px"/>
<!-- Line -->
<rect x="7575" y="2925" width="1650" height="600"
	stroke="#000000" stroke-width="8px"/>
<!-- Line -->
<rect x="7575" y="4875" width="1650" height="600"
	stroke="#000000" stroke-width="8px"/>
<!-- Line -->
<rect x="4650" y="1425" width="750" height="525"
	stroke="#000000" stroke-width="8px"/>
<!-- Line -->
<defs>
<clipPath id="cp2">
	<path clip-rule="evenodd" d="M 2688,1413 H 9237 V 8712 H 2688 z
		M 5055,3389 4995,3389 5018,3532 5032,3532z"/>
</clipPath>
</defs>
<polyline points=" 5025,3000 5025,3525" clip-path="url(#cp2)"
	stroke="#000000" stroke-width="8px"/>
<!-- Forward arrow to point 5025,3525 -->
<polygon points=" 4995,3389 5025,3509 5055,3389 4995,3389"
	stroke="#000000" stroke-width="8px" stroke-miterlimit="8" fill="#000000"/>
<!-- Line -->
<defs>
<clipPath id="cp3">
	<path clip-rule="evenodd" d="M 2688,1413 H 9237 V 8712 H 2688 z
		M 5055,4439 4995,4439 5018,4582 5032,4582z"/>
</clipPath>
</defs>
<polyline points=" 5025,4050 5025,4575" clip-path="url(#cp3)"
	stroke="#000000" stroke-width="8px"/>
<!-- Forward arrow to point 5025,4575 -->
<polygon points=" 4995,4439 5025,4559 5055,4439 4995,4439"
	stroke="#000000" stroke-width="8px" stroke-miterlimit="8" fill="#000000"/>
<!-- Line -->
<rect x="4650" y="4575" width="750" height="525" fill="#ffffff"
	stroke="#000000" stroke-width="8px"/>
<!-- Line -->
<defs>
<clipPath id="cp4">
	<path clip-rule="evenodd" d="M 2688,1413 H 9237 V 8712 H 2688 z
		M 3780,5489 3720,5489 3743,5632 3757,5632z"/>
</clipPath>
</defs>
<polyline points=" 4650,4800 3750,4800 3750,5625" clip-path="url(#cp4)"
	stroke="#000000" stroke-width="8px"/>
<!-- Forward arrow to point 3750,5625 -->
<polygon points=" 3720,5489 3750,5609 3780,5489 3720,5489"
	stroke="#000000" stroke-width="8px" stroke-miterlimit="8" fill="#000000"/>
<!-- Line -->
<defs>
<clipPath id="cp5">
	<path clip-rule="evenodd" d="M 2688,1413 H 9237 V 8712 H 2688 z
		M 4155,5489 4095,5489 4118,5632 4132,5632z"/>
</clipPath>
</defs>
<polyline points=" 4650,5025 4125,5025 4125,5625" clip-path="url(#cp5)"
	stroke="#000000" stroke-width="8px"/>
<!-- Forward arrow to point 4125,5625 -->
<polygon points=" 4095,5489 4125,5609 4155,5489 4095,5489"
	stroke="#000000" stroke-width="8px" stroke-miterlimit="8" fill="#000000"/>
<!-- Line -->
<defs>
<clipPath id="cp6">
	<path clip-rule="evenodd" d="M 2688,1413 H 9237 V 8712 H 2688 z
		M 5955,5489 5895,5489 5918,5632 5932,5632z"/>
</clipPath>
</defs>
<polyline points=" 5400,5025 5925,5025 5925,5625" clip-path="url(#cp6)"
	stroke="#000000" stroke-width="8px"/>
<!-- Forward arrow to point 5925,5625 -->
<polygon points=" 5895,5489 5925,5609 5955,5489 5895,5489"
	stroke="#000000" stroke-width="8px" stroke-miterlimit="8" fill="#000000"/>
<!-- Line -->
<defs>
<clipPath id="cp7">
	<path clip-rule="evenodd" d="M 2688,1413 H 9237 V 8712 H 2688 z
		M 6330,5489 6270,5489 6293,5632 6307,5632z"/>
</clipPath>
</defs>
<polyline points=" 5400,4800 6300,4800 6300,5625" clip-path="url(#cp7)"
	stroke="#000000" stroke-width="8px"/>
<!-- Forward arrow to point 6300,5625 -->
<polygon points=" 6270,5489 6300,5609 6330,5489 6270,5489"
	stroke="#000000" stroke-width="8px" stroke-miterlimit="8" fill="#000000"/>
<!-- Line -->
<defs>
<clipPath id="cp8">
	<path clip-rule="evenodd" d="M 2688,1413 H 9237 V 8712 H 2688 z
		M 6061,3255 6061,3195 5918,3218 5918,3232z"/>
</clipPath>
</defs>
<polyline points=" 7575,3225 5925,3225" clip-path="url(#cp8)"
	stroke="#000000" stroke-width="8px"/>
<!-- Forward arrow to point 5925,3225 -->
<polygon points=" 6061,3195 5941,3225 6061,3255 6061,3195"
	stroke="#000000" stroke-width="8px" stroke-miterlimit="8" fill="#000000"/>
<!-- Line -->
<defs>
<clipPath id="cp9">
	<path clip-rule="evenodd" d="M 2688,1413 H 9237 V 8712 H 2688 z
		M 7036,5205 7036,5145 6893,5168 6893,5182z"/>
</clipPath>
</defs>
<polyline points=" 7575,5175 6900,5175" clip-path="url(#cp9)"
	stroke="#000000" stroke-width="8px"/>
<!-- Forward arrow to point 6900,5175 -->
<polygon points=" 7036,5145 6916,5175 7036,5205 7036,5145"
	stroke="#000000" stroke-width="8px" stroke-miterlimit="8" fill="#000000"/>
<!-- Line -->
<rect x="4650" y="2475" width="750" height="525"
	stroke="#000000" stroke-width="8px"/>
<!-- Line -->
<defs>
<clipPath id="cp10">
	<path clip-rule="evenodd" d="M 2688,1413 H 9237 V 8712 H 2688 z
		M 5055,2339 4995,2339 5018,2482 5032,2482z"/>
</clipPath>
</defs>
<polyline points=" 5025,1950 5025,2475" clip-path="url(#cp10)"
	stroke="#000000" stroke-width="8px"/>
<!-- Forward arrow to point 5025,2475 -->
<polygon points=" 4995,2339 5025,2459 5055,2339 4995,2339"
	stroke="#000000" stroke-width="8px" stroke-miterlimit="8" fill="#000000"/>
<!-- Text -->
<text xml:space="preserve" x="4875" y="3825" fill="#000000" font-family="Times" font-style="normal" font-weight="normal" font-size="144" text-anchor="start">.rtex</text>
<!-- Text -->
<text xml:space="preserve" x="4875" y="4875" fill="#000000" font-family="Times" font-style="normal" font-weight="normal" font-size="144" text-anchor="start">.tex</text>
<!-- Text -->
<text xml:space="preserve" x="6000" y="6975" fill="#000000" font-family="Times" font-style="normal" font-weight="normal" font-size="144" text-anchor="start">.ps</text>
<!-- Text -->
<text xml:space="preserve" x="6000" y="8025" fill="#000000" font-family="Times" font-style="normal" font-weight="normal" font-size="144" text-anchor="start">.pdf</text>
<!-- Text -->
<text xml:space="preserve" x="7800" y="3300" fill="#000000" font-family="Times" font-style="normal" font-weight="normal" font-size="144" text-anchor="start">XSL Stylesheets</text>
<!-- Text -->
<text xml:space="preserve" x="7800" y="5250" fill="#000000" font-family="Times" font-style="normal" font-weight="normal" font-size="144" text-anchor="start">LaTeX Package</text>
<!-- Text -->
<text xml:space="preserve" x="4800" y="1725" fill="#000000" font-family="Times" font-style="normal" font-weight="normal" font-size="144" text-anchor="start">.sgml</text>
<!-- Text -->
<text xml:space="preserve" x="5175" y="3300" fill="#000000" font-family="Times" font-style="normal" font-weight="normal" font-size="144" text-anchor="start">xsltproc</text>
<!-- Text -->
<text xml:space="preserve" x="4725" y="5400" fill="#000000" font-family="Times" font-style="normal" font-weight="normal" font-size="144" text-anchor="start">makeindex</text>
<!-- Text -->
<text xml:space="preserve" x="4875" y="5700" fill="#000000" font-family="Times" font-style="normal" font-weight="normal" font-size="144" text-anchor="start">bibtex</text>
<!-- Text -->
<text xml:space="preserve" x="6000" y="8625" fill="#000000" font-family="Times" font-style="normal" font-weight="normal" font-size="144" text-anchor="start">-b dvips</text>
<!-- Text -->
<text xml:space="preserve" x="6450" y="5250" fill="#000000" font-family="Times" font-style="normal" font-weight="normal" font-size="144" text-anchor="start">latex</text>
<!-- Text -->
<text xml:space="preserve" x="6600" y="1950" fill="#000000" font-family="Times" font-style="italic" font-weight="bold" font-size="144" text-anchor="start">dblatex</text>
<!-- Text -->
<text xml:space="preserve" x="3300" y="6525" fill="#000000" font-family="Times" font-style="normal" font-weight="normal" font-size="144" text-anchor="start">-b pdftex</text>
<!-- Text -->
<text xml:space="preserve" x="3300" y="6750" fill="#000000" font-family="Times" font-style="normal" font-weight="normal" font-size="144" text-anchor="start">-b xetex</text>
<!-- Text -->
<text xml:space="preserve" x="3000" y="5100" fill="#000000" font-family="Times" font-style="normal" font-weight="normal" font-size="144" text-anchor="start">pdflatex</text>
<!-- Text -->
<text xml:space="preserve" x="3000" y="5325" fill="#000000" font-family="Times" font-style="normal" font-weight="normal" font-size="144" text-anchor="start">xelatex</text>
<!-- Text -->
<text xml:space="preserve" x="4875" y="2775" fill="#000000" font-family="Times" font-style="normal" font-weight="normal" font-size="144" text-anchor="start">.xml</text>
<!-- Text -->
<text xml:space="preserve" x="5175" y="2250" fill="#000000" font-family="Times" font-style="normal" font-weight="normal" font-size="144" text-anchor="start">osx</text>
<!-- Text -->
<text xml:space="preserve" x="6000" y="5925" fill="#000000" font-family="Times" font-style="normal" font-weight="normal" font-size="144" text-anchor="start">.dvi</text>
<!-- Text -->
<text xml:space="preserve" x="3750" y="5925" fill="#000000" font-family="Times" font-style="normal" font-weight="normal" font-size="144" text-anchor="start">.pdf</text>
<!-- Text -->
<text xml:space="preserve" x="4875" y="4875" fill="#000000" font-family="Times" font-style="normal" font-weight="normal" font-size="144" text-anchor="start">.tex</text>
</g>
</svg>
